<svg xmlns="http://www.w3.org/2000/svg" width="500" height="125" fill="none"><g fill="#002F61" clip-path="url(#a)"><path d="M104.097 8.491v101.361l7.942 1.049v5.938h-39.35v-5.938l8.47-1.049V63.711H30.876v46.141l7.764 1.049v5.938H0v-5.938l7.762-1.049V8.491L0 7.441V1.676h38.64v5.767L30.874 8.49v43.34H81.16V8.49l-8.47-1.05V1.676h39.349v5.767l-7.942 1.049ZM157.74 110.553l7.407 1.045v5.241h-36.168v-5.241l7.416-1.045V41.166l-7.416-1.04V34.88h28.761v75.673ZM180.856 111.751l7.237-1.014V7.775l-7.237-1.019V1.675h28.763v109.062l7.41 1.014v5.09h-36.173v-5.09ZM260.965 34.88h19.406v7.688h-19.406v48.756c0 12.584 2.637 16.605 14.107 16.605 4.239 0 7.954 0 11.476-.876v5.592c-10.413 3.671-19.236 5.246-26.648 5.246-16.58 0-20.466-7.513-20.466-21.851V42.568h-15.172V34.88h15.706V17.756l20.997-6.297v23.42ZM353.959 76.124c0-25.87-7.763-37.23-20.3-37.23-12.169 0-19.941 10.838-19.941 37.23 0 26.038 7.772 36.871 19.941 36.871 13.067 0 20.3-10.307 20.3-36.871Zm23.64.52c0 25.518-17.284 42.642-44.461 42.642-26.297 0-43.062-11.188-43.062-42.641 0-26.391 17.295-44.04 44.468-44.04 26.825 0 43.055 15.907 43.055 44.04ZM475.703 111.598v5.241H439.53v-5.241l7.241-1.045V63.886c0-12.93-4.762-18.699-14.653-18.699-4.587 0-11.819 3.146-17.111 6.817v58.549l7.408 1.045v5.241h-36.34v-5.241l7.401-1.045V41.692l-7.401-1.043v-5.77h28.932v11.362c8.994-7.167 17.645-12.938 29.817-12.938 16.234 0 23.467 9.442 23.467 27.964v49.286l7.412 1.045ZM158.787 13.209c0 6.372-5.215 11.534-11.644 11.534s-11.648-5.162-11.648-11.534c0-6.372 5.213-11.534 11.648-11.534s11.644 5.162 11.644 11.534ZM500 112.605a7.43 7.43 0 0 1-7.434 7.434 7.43 7.43 0 0 1-7.434-7.434 7.43 7.43 0 0 1 7.434-7.434 7.43 7.43 0 0 1 7.434 7.434Zm-13.256-.022c0 3.203 2.622 5.824 5.822 5.824 3.18 0 5.824-2.621 5.824-5.824 0-3.202-2.644-5.821-5.824-5.821-3.2 0-5.822 2.621-5.822 5.821Zm8.961-1.259c0 1.115-.456 1.818-1.466 2.107l1.755 2.602h-1.59l-1.59-2.394c-.123 0-.248.02-.434.02h-1.384v2.374h-1.404v-7.02h3.097c2.126 0 3.016.721 3.016 2.311Zm-4.707 1.24h1.735c1.156 0 1.548-.331 1.548-1.157 0-.826-.392-1.134-1.548-1.134h-1.735v2.291Z"/></g><defs><clipPath id="a"><path fill="#fff" d="M0 0h500v125H0z"/></clipPath></defs></svg>